<svg id="Capa_1" enable-background="new 0 0 494.449 494.449" height="512" viewBox="0 0 494.449 494.449" width="512" xmlns="http://www.w3.org/2000/svg"><g><path fill="#fff" d="m258.212 315.519c45.225-25.192 120.241-58.82 56.386-101.998-12.788-8.916-30.927-19.03-56.031-33.028-24.809-16.134-67.393-27.303-70.463 5.109-.921 9.723-16.054 111.837 12.008 136.382 16.622 15.989 41.272 4.935 58.1-6.465zm-41.625-79.067c1.312-16.185 2.477-30.567 1.268-41.835.748-.572 2.646-1.142 3.298-.748 28.835 17.48 69.416 35.553 87.706 54.03-1.212 1.687-4.837 5.541-15.539 12.56-14.739 9.766-46.572 26.994-68.795 39.521-15.856 1.597-8.278-49.109-7.938-63.528z"/><path fill="#fff" d="m486.204 193.06c-24.921-135.3-179.735-226.79-310.137-181.232-62.755 20.677-112.354 69.317-144.769 125.698-13.94-16.185-4.732-39.103-1.544-57.739 1.096-8.987 6.918-35.979-7.306-35.822-12.936 1.269-5.711 17.49-8.626 26.039-3.669 19.901-13.105 39.755-9.007 60.634 4.706 29.284 34.201 45.886 61.866 46.381 22.132 1.225 44.374-3.157 65.163-9.458 8.246-2.282 8.055-15.169-.58-16.911-24.003-5.794-47.297-2.662-71.206-3.611 27.375-49.567 69.958-92.79 124.084-111.861 117.899-44.007 260.19 38.757 284.109 161.538 13.214 61.566-5.144 126.052-39.503 177.71-7.178 12.152 12.298 23.232 19.034 10.714 8.146-14.47 15.638-29.32 21.916-44.728 19.093-46.231 26.476-97.901 16.506-147.352z"/><path fill="#fff" d="m366.957 443.172c-35.718 13.652-72.622 21.33-110.627 21.212-90.057 1.16-180.372-38.659-211.284-128.68-7.099-20.384-9.868-42.229-9.068-63.757.005-4.361.859-9.879 1.153-14.34 1.218-10.874-15.7-12.582-16.816-1.8-1.206 10.437-1.722 20.993-1.439 31.588 3.051 169.461 222.017 263.261 356.26 170.591 8.355-5.383.814-18.971-8.179-14.814z"/></g></svg>